<?xml version="1.0" standalone="no"?>
<!DOCTYPE svg PUBLIC "-//W3C//DTD SVG 20010904//EN"
 "http://www.w3.org/TR/2001/REC-SVG-20010904/DTD/svg10.dtd">
<svg version="1.0" xmlns="http://www.w3.org/2000/svg"
 width="260.000000pt" height="260.000000pt" viewBox="0 0 260.000000 260.000000"
 preserveAspectRatio="xMidYMid meet">
<metadata>
Created by potrace 1.14, written by Peter Selinger 2001-2017
</metadata>
<g transform="translate(0.000000,260.000000) scale(0.100000,-0.100000)"
fill="#000000" stroke="none">
<path d="M217 2173 c-90 -20 -131 -47 -189 -124 l-27 -35 95 -225 c52 -123 99
-233 104 -244 5 -11 21 -49 36 -85 70 -173 217 -495 305 -668 161 -319 285
-482 365 -482 56 0 194 80 379 221 97 74 214 161 261 194 76 54 86 58 95 42
14 -24 29 -21 73 16 38 33 39 34 22 59 l-17 26 123 85 c131 91 371 279 447
350 70 64 104 113 103 148 l-1 30 77 -1 c124 -2 132 -1 132 15 0 13 -75 15
-614 15 -536 0 -615 -2 -620 -15 -4 -13 8 -15 74 -15 l80 0 1 -42 c0 -24 2
-50 4 -58 6 -24 23 -103 29 -135 2 -11 7 -33 11 -50 5 -22 4 -26 -4 -15 -8 12
-18 7 -58 -26 -26 -23 -106 -81 -178 -129 -71 -49 -168 -115 -214 -147 -46
-32 -88 -58 -92 -58 -10 0 -68 82 -134 191 -81 135 -185 353 -320 669 -65 151
-134 311 -154 355 -21 44 -44 95 -52 113 -7 17 -16 33 -19 33 -23 6 -76 3
-123 -8z m2098 -703 c-4 -6 -10 -10 -15 -10 -5 0 -44 -21 -87 -47 -165 -101
-347 -161 -474 -159 l-73 1 -43 99 c-24 54 -51 105 -60 112 -15 11 49 13 370
13 243 0 385 -3 382 -9z m65 -24 c0 -38 -79 -118 -255 -258 -82 -66 -157 -126
-166 -133 -9 -7 -67 -48 -129 -90 -88 -61 -114 -75 -121 -64 -36 57 -120 235
-125 266 -3 21 -14 78 -25 126 -25 113 -30 155 -20 161 14 9 38 -27 67 -99 15
-38 36 -83 47 -99 20 -28 21 -28 98 -23 91 7 174 27 275 67 83 33 81 33 184
92 41 24 88 51 104 60 31 16 66 13 66 -6z m-748 -441 c39 -77 77 -149 84 -160
8 -11 14 -23 14 -26 0 -8 -70 -53 -73 -48 -2 2 -8 15 -15 29 -6 14 -46 90 -88
169 l-76 144 33 28 c24 21 35 25 41 16 5 -7 40 -75 80 -152z"/>
<path d="M1654 846 c-8 -21 13 -46 32 -39 20 8 13 47 -9 51 -9 2 -20 -4 -23
-12z m30 -17 c-3 -5 -10 -7 -15 -3 -5 3 -7 10 -3 15 3 5 10 7 15 3 5 -3 7 -10
3 -15z"/>
<path d="M1975 2056 c-10 -7 -16 -19 -13 -27 3 -10 -13 -17 -64 -26 -153 -25
-310 -137 -371 -263 -27 -55 -58 -184 -50 -207 7 -19 1033 -19 1034 0 12 140
-86 311 -232 403 -50 32 -176 74 -219 74 -23 0 -30 5 -30 20 0 27 -32 43 -55
26z m35 -21 c10 -13 9 -15 -9 -15 -12 0 -21 6 -21 15 0 8 4 15 9 15 5 0 14 -7
21 -15z m105 -68 c177 -47 310 -170 351 -326 8 -31 14 -62 14 -71 0 -14 -49
-16 -486 -16 l-486 0 7 45 c12 80 61 177 118 234 61 61 174 119 272 140 25 5
183 1 210 -6z"/>
<path d="M1682 1810 c-38 -23 -74 -77 -70 -104 5 -34 24 -28 36 11 13 42 45
69 87 77 33 6 39 11 30 25 -10 17 -47 13 -83 -9z"/>
</g>
</svg>
